<?xml version="1.0" standalone="no"?>
<!DOCTYPE svg PUBLIC "-//W3C//DTD SVG 20010904//EN"
 "http://www.w3.org/TR/2001/REC-SVG-20010904/DTD/svg10.dtd">
<svg version="1.0" xmlns="http://www.w3.org/2000/svg"
 width="1024.000000pt" height="1024.000000pt" viewBox="0 0 1024.000000 1024.000000"
 preserveAspectRatio="xMidYMid meet">

<g transform="translate(0.000000,1024.000000) scale(0.100000,-0.100000)"
fill="#000000" stroke="none">
<path d="M5025 9169 c-432 -35 -845 -133 -1210 -286 -154 -65 -423 -199 -550
-273 -820 -482 -1454 -1264 -1766 -2178 -86 -251 -156 -568 -184 -837 -30
-283 -16 -779 30 -1052 118 -698 397 -1314 843 -1863 116 -142 481 -505 617
-613 237 -188 475 -338 750 -472 202 -98 277 -129 490 -201 737 -250 1520
-275 2272 -73 723 194 1400 592 1886 1112 572 610 909 1272 1051 2067 43 239
58 422 58 685 -1 516 -85 958 -274 1430 -174 438 -445 880 -721 1179 -45 49
-83 93 -85 97 -8 20 -328 311 -447 406 -492 395 -1101 680 -1710 802 -356 71
-729 96 -1050 70z m625 -544 c646 -73 1221 -311 1765 -730 424 -327 792 -786
1021 -1272 221 -466 324 -924 324 -1431 0 -312 -30 -553 -106 -857 -201 -798
-719 -1528 -1419 -2001 -724 -489 -1571 -688 -2415 -568 -977 139 -1894 729
-2432 1564 -227 352 -399 773 -478 1170 -149 747 -52 1514 276 2170 326 651
830 1184 1449 1530 421 236 846 373 1318 424 172 19 531 19 697 1z"/>
<path d="M5165 8314 c-124 -9 -275 -26 -354 -40 -398 -67 -809 -223 -1096
-416 -52 -34 -95 -65 -95 -68 0 -3 22 -12 48 -21 26 -9 64 -24 84 -33 l38 -16
132 69 c720 374 1475 449 2219 220 148 -45 291 -104 471 -195 l128 -64 107 15
c58 8 110 15 115 15 62 0 -197 162 -424 266 -283 130 -579 213 -883 249 -126
14 -404 25 -490 19z"/>
<path d="M3088 5230 l2 -2180 370 0 370 0 1 1573 c0 1366 2 1568 14 1542 8
-16 101 -255 206 -530 548 -1434 965 -2517 986 -2557 l14 -28 238 0 239 0 50
128 c28 70 93 240 146 377 52 138 125 327 161 420 103 262 440 1135 612 1585
85 223 173 454 196 514 l42 109 3 -1567 2 -1566 375 0 375 0 0 2180 0 2180
-531 -2 -531 -3 -85 -225 c-79 -210 -391 -1024 -523 -1365 -32 -82 -133 -346
-225 -585 -92 -239 -194 -505 -227 -590 -33 -85 -64 -168 -70 -183 -6 -15 -12
-26 -14 -24 -3 2 -65 166 -140 363 -192 508 -289 763 -397 1044 -51 135 -138
360 -192 500 -53 140 -128 335 -166 432 -38 98 -105 273 -148 391 -44 117 -83
220 -87 230 -6 16 -44 17 -538 17 l-531 0 3 -2180z"/>
<path d="M2696 6893 c-230 -315 -369 -636 -470 -1089 -50 -224 -74 -553 -58
-788 43 -615 216 -1129 526 -1559 l71 -98 3 147 3 147 -60 101 c-300 507 -431
1213 -341 1838 56 391 188 773 361 1044 l40 61 -3 146 -3 145 -69 -95z"/>
<path d="M7810 6858 l0 -131 59 -101 c352 -605 466 -1305 330 -2026 -57 -299
-192 -654 -337 -888 l-52 -84 0 -139 c0 -76 3 -139 8 -138 26 2 229 317 309
478 218 445 338 1043 305 1514 -38 523 -179 987 -419 1381 -59 98 -183 266
-195 266 -4 0 -8 -59 -8 -132z"/>
<path d="M3683 2643 c-40 -20 -73 -39 -73 -43 0 -16 185 -130 335 -206 629
-318 1307 -406 1990 -259 357 77 739 237 1029 431 l49 33 -86 42 -86 43 -48
-28 c-117 -67 -374 -188 -488 -230 -500 -184 -991 -230 -1485 -140 -329 60
-618 163 -910 323 -71 39 -135 71 -142 70 -7 0 -46 -16 -85 -36z"/>
</g>
</svg>
